<svg width="292" height="73" viewBox="0 0 292 73" fill="none" xmlns="http://www.w3.org/2000/svg">
<path d="M5.40051 3.49797C5.40051 3.49797 25.3695 0.201569 38.2704 0.201569C51.1713 0.201569 71.1404 3.49797 71.1404 3.49797C71.1404 3.49797 75.0634 23.1521 75.1015 35.8406C75.1408 48.9391 71.1404 69.2378 71.1404 69.2378C71.1404 69.2378 51.1565 72.1276 38.2704 72.1276C25.3844 72.1276 5.40051 69.2378 5.40051 69.2378C5.40051 69.2378 0.308589 49.0299 0.371862 35.8406C0.433181 23.0584 5.40051 3.49797 5.40051 3.49797Z" fill="#EA564A"/>
<rect x="33.7236" y="14.7971" width="7.74901" height="41.2613" fill="#FEFEFE"/>
<rect x="59.104" y="32.1517" width="7.74901" height="41.2613" transform="rotate(90 59.104 32.1517)" fill="#FEFEFE"/>
<path d="M130.254 47.6646H137.646L126.478 26.3206H116.366L105.07 47.6646H112.494L114.318 44.0486H128.43L130.254 47.6646ZM126.158 39.3766H116.622L120.75 31.2806H122.03L126.158 39.3766Z" fill="#EA564A"/>
<path d="M138.618 26.3206V47.6646H145.434V26.3206H138.618Z" fill="#EA564A"/>
<path d="M156.43 47.6646H171.822C179.022 47.6646 180.91 47.3446 182.542 45.8726C184.11 44.4326 184.59 42.2566 184.59 36.6886C184.59 33.2006 184.462 31.8566 183.982 30.3526C183.342 28.3686 181.934 27.1526 179.822 26.7366C177.998 26.3526 177.262 26.3206 171.822 26.3206H156.43V47.6646ZM162.83 42.2246V31.6646H171.822C175.79 31.6646 176.654 31.7926 177.326 32.5606C177.966 33.2646 178.19 34.4486 178.19 37.0726C178.19 41.9046 177.774 42.2246 171.886 42.2246H162.83Z" fill="#EA564A"/>
<path d="M197.229 32.1446C192.077 32.1446 189.869 32.4966 188.461 33.5206C186.957 34.6086 186.509 36.0486 186.509 39.6006C186.509 43.9846 186.861 45.3926 188.269 46.5446C189.709 47.7286 191.597 48.0486 197.261 48.0486C202.861 48.0486 204.749 47.7286 206.189 46.5446C207.565 45.3926 207.949 43.9846 207.949 39.8246C207.949 36.0166 207.533 34.6406 205.997 33.5206C204.589 32.4966 202.413 32.1446 197.229 32.1446ZM197.261 36.4006C198.861 36.4006 200.205 36.5606 200.909 36.8486C201.965 37.2646 202.285 38.0006 202.285 40.0486C202.285 43.2486 201.549 43.7926 197.261 43.7926C195.437 43.7926 194.157 43.6326 193.453 43.3126C192.429 42.8966 192.173 42.2246 192.173 40.2086C192.173 36.9766 192.941 36.4006 197.261 36.4006Z" fill="#EA564A"/>
<path d="M224.578 41.5846C224.322 43.3126 223.362 43.7606 220.034 43.7606C218.53 43.7606 217.314 43.6006 216.642 43.3126C215.618 42.8966 215.298 42.1286 215.298 40.1446C215.298 36.9766 216.034 36.3686 219.97 36.3686C223.298 36.3686 224.418 36.9446 224.61 38.6726H230.37C230.274 35.8246 229.858 34.6406 228.642 33.6806C227.202 32.4966 224.994 32.1126 219.97 32.1126C214.85 32.1126 212.866 32.4646 211.426 33.6486C210.082 34.7366 209.634 36.3366 209.634 39.9846C209.634 43.9846 210.114 45.6166 211.586 46.6406C213.09 47.7286 215.042 48.0486 219.682 48.0486C225.634 48.0486 227.49 47.6646 228.93 46.1926C229.922 45.2006 230.242 44.1126 230.338 41.5846H224.578Z" fill="#EA564A"/>
<path d="M234.121 29.0406V32.5286H231.145V36.5926H234.121V41.0086C234.121 42.2566 234.121 43.0246 234.153 43.2806C234.217 45.0086 234.537 45.8406 235.337 46.6406C236.457 47.7286 237.929 48.0486 241.545 48.0486C245.449 48.0486 247.177 47.5686 248.329 46.1286C249.193 45.0086 249.417 44.0806 249.481 41.2006H244.297C244.297 42.7686 244.265 42.8966 244.073 43.2486C243.817 43.7926 243.177 44.0166 242.025 44.0166C240.937 44.0166 240.361 43.7926 240.073 43.2806C239.817 42.8966 239.785 42.6726 239.785 41.0086V36.5926H248.745V32.5286H239.785V29.0406H234.121Z" fill="#EA564A"/>
<path d="M261.542 32.1446C256.39 32.1446 254.182 32.4966 252.774 33.5206C251.27 34.6086 250.822 36.0486 250.822 39.6006C250.822 43.9846 251.174 45.3926 252.582 46.5446C254.022 47.7286 255.91 48.0486 261.574 48.0486C267.174 48.0486 269.062 47.7286 270.502 46.5446C271.878 45.3926 272.262 43.9846 272.262 39.8246C272.262 36.0166 271.846 34.6406 270.31 33.5206C268.902 32.4966 266.726 32.1446 261.542 32.1446ZM261.574 36.4006C263.174 36.4006 264.518 36.5606 265.222 36.8486C266.278 37.2646 266.598 38.0006 266.598 40.0486C266.598 43.2486 265.862 43.7926 261.574 43.7926C259.75 43.7926 258.47 43.6326 257.766 43.3126C256.742 42.8966 256.486 42.2246 256.486 40.2086C256.486 36.9766 257.254 36.4006 261.574 36.4006Z" fill="#EA564A"/>
<path d="M274.363 32.5286V47.6646H280.027V41.3926C280.027 39.0566 280.187 38.2246 280.731 37.4886C281.275 36.7846 282.331 36.4006 283.611 36.4006C285.947 36.4006 286.587 37.0086 286.587 39.2486H291.931V38.2246C291.931 33.6806 290.395 32.1446 285.819 32.1446C282.651 32.1446 281.051 32.8806 279.995 34.8006H279.707V32.5286H274.363Z" fill="#EA564A"/>
</svg>
